#N canvas 0 22 656 455 10;
#X obj 106 337 mtof;
#X obj 108 365 phasor~;
#X obj 167 93 route 0;
#X obj 105 315 i;
#X obj 242 108 / 127;
#X obj 235 418 *~;
#X obj 168 192 r release;
#X obj 146 213 pack 0 0;
#X obj 102 46 unpack 0 0;
#X obj 103 -1 r notepoly;
#X obj 103 21 route \$1;
#X obj 237 456 throw~ polyOut;
#X obj 142 129 t b b;
#X obj 250 341 vline~;
#X msg 239 241 \$1 \$2 \, \$4 \$3 \$2;
#X obj 302 183 r attack;
#X obj 361 182 r sustain;
#X obj 329 161 r decay;
#X obj 263 373 pow~ 1;
#X obj 366 316 r curve;
#X obj 286 208 pack 0 0 0 1 0;
#X connect 0 0 1 0;
#X connect 1 0 5 0;
#X connect 2 0 12 0;
#X connect 2 1 4 0;
#X connect 3 0 0 0;
#X connect 4 0 20 0;
#X connect 5 0 11 0;
#X connect 6 0 7 1;
#X connect 7 0 13 0;
#X connect 8 0 3 0;
#X connect 8 1 2 0;
#X connect 9 0 10 0;
#X connect 10 0 8 0;
#X connect 12 0 7 0;
#X connect 13 0 18 0;
#X connect 14 0 13 0;
#X connect 15 0 20 1;
#X connect 16 0 20 3;
#X connect 17 0 20 2;
#X connect 18 0 5 1;
#X connect 19 0 18 1;
#X connect 20 0 14 0;
