#N canvas 0 22 656 455 10;
#X obj 106 337 mtof;
#X obj 108 365 phasor~;
#X obj 250 341 line~;
#X obj 444 145 r attack;
#X obj 167 93 route 0;
#X obj 105 315 i;
#X obj 242 108 / 127;
#X obj 399 195 pack 0 0;
#X obj 234 377 *~;
#X obj 144 192 t b;
#X obj 168 192 r release;
#X obj 146 213 pack 0 0;
#X obj 245 248 pack 1 0;
#X obj 273 191 r sustain;
#X obj 243 188 pipe;
#X obj 265 230 r decay;
#X obj 102 46 unpack 0 0;
#X obj 103 -1 r notepoly;
#X obj 103 21 route \$1;
#X obj 241 129 t f f;
#X obj 247 209 * 1;
#X obj 236 415 throw~ polyOut;
#X connect 0 0 1 0;
#X connect 1 0 8 0;
#X connect 2 0 8 1;
#X connect 3 0 7 1;
#X connect 3 0 14 1;
#X connect 4 0 9 0;
#X connect 4 1 6 0;
#X connect 5 0 0 0;
#X connect 6 0 19 0;
#X connect 7 0 2 0;
#X connect 8 0 21 0;
#X connect 9 0 11 0;
#X connect 10 0 11 1;
#X connect 11 0 2 0;
#X connect 12 0 2 0;
#X connect 13 0 20 1;
#X connect 14 0 20 0;
#X connect 15 0 12 1;
#X connect 16 0 5 0;
#X connect 16 1 4 0;
#X connect 17 0 18 0;
#X connect 18 0 16 0;
#X connect 19 0 14 0;
#X connect 19 1 7 0;
#X connect 20 0 12 0;
