#N canvas 337 33 694 531 10;
#X obj 253 24 notein;
#N canvas 19 495 450 300 gui 1;
#X obj 47 12 hsl 128 15 0 1000 0 0 attack empty empty -2 -8 0 10 -262144
-1 -1 0 1;
#X obj 45 96 hsl 128 15 0 1000 0 0 release empty empty -2 -8 0 10 -262144
-1 -1 0 1;
#X obj 44 45 hsl 128 15 0 1000 0 0 decay empty decay -2 -8 0 10 -262144
-1 -1 1000 1;
#X obj 42 75 hsl 128 15 0 1 0 0 sustain empty sustain -2 -8 0 10 -262144
-1 -1 300 1;
#X obj 67 160 tgl 15 0 panic empty empty 17 7 0 10 -262144 -1 -1 0
1;
#X obj 227 20 hsl 128 15 0.1 10 0 0 curve empty curve -2 -8 0 10 -262144
-1 -1 0 1;
#X restore 68 92 pd gui;
#X obj 322 365 dac~;
#X obj 128 68 unpack 67 127;
#X obj 235 56 pack 0 0;
#X obj 268 106 pack 0 0 0;
#X obj 269 133 s notepoly;
#X obj 151 136 print;
#X msg 467 50 stop;
#X obj 471 15 r panic;
#X obj 255 171 saw_synth 1;
#X msg 26 26 67;
#X obj 324 282 catch~ polyOut;
#X msg 83 7 70;
#X obj 79 36 makenote 127 1000;
#X obj 272 78 poly 5 1;
#X obj 335 171 saw_synth 2;
#X obj 412 169 saw_synth 3;
#X obj 492 169 saw_synth 4;
#X obj 575 169 saw_synth 5;
#X connect 0 0 4 0;
#X connect 0 1 4 1;
#X connect 3 0 4 0;
#X connect 3 1 4 1;
#X connect 4 0 15 0;
#X connect 5 0 6 0;
#X connect 8 0 15 0;
#X connect 9 0 8 0;
#X connect 11 0 14 0;
#X connect 12 0 2 0;
#X connect 12 0 2 1;
#X connect 13 0 14 0;
#X connect 14 0 4 0;
#X connect 14 1 4 1;
#X connect 15 0 5 0;
#X connect 15 1 5 1;
#X connect 15 2 5 2;
